<?xml version="1.0" encoding="UTF-8" standalone="no"?>
<!-- Created with Inkscape (http://www.inkscape.org/) -->

<svg
   xmlns:dc="http://purl.org/dc/elements/1.1/"
   xmlns:cc="http://creativecommons.org/ns#"
   xmlns:rdf="http://www.w3.org/1999/02/22-rdf-syntax-ns#"
   xmlns:svg="http://www.w3.org/2000/svg"
   xmlns="http://www.w3.org/2000/svg"
   xmlns:xlink="http://www.w3.org/1999/xlink"
   xmlns:sodipodi="http://sodipodi.sourceforge.net/DTD/sodipodi-0.dtd"
   xmlns:inkscape="http://www.inkscape.org/namespaces/inkscape"
   width="178.80327"
   height="115.98431"
   id="svg9666"
   version="1.1"
   inkscape:version="0.48.2 r9819"
   sodipodi:docname="Neues Dokument 17">
  <defs
     id="defs9668">
    <filter
       inkscape:collect="always"
       id="filter7408"
       color-interpolation-filters="sRGB">
      <feGaussianBlur
         inkscape:collect="always"
         stdDeviation="2.8642969"
         id="feGaussianBlur7410" />
    </filter>
    <filter
       inkscape:collect="always"
       id="filter5946"
       color-interpolation-filters="sRGB">
      <feGaussianBlur
         inkscape:collect="always"
         stdDeviation="1.1810342"
         id="feGaussianBlur5948" />
    </filter>
    <radialGradient
       inkscape:collect="always"
       xlink:href="#linearGradient5918"
       id="radialGradient9269"
       gradientUnits="userSpaceOnUse"
       gradientTransform="matrix(1.0858214,-0.47136177,0.67308433,1.5505063,-135.48118,-58.604596)"
       cx="98.064865"
       cy="188.78038"
       fx="98.064865"
       fy="188.78038"
       r="40.425415" />
    <linearGradient
       inkscape:collect="always"
       id="linearGradient5918">
      <stop
         style="stop-color:#e6e6e6;stop-opacity:1;"
         offset="0"
         id="stop5920" />
      <stop
         id="stop5926"
         offset="0.58290678"
         style="stop-color:white;stop-opacity:1" />
      <stop
         style="stop-color:#f9f9f9;stop-opacity:1"
         offset="1"
         id="stop5922" />
    </linearGradient>
    <radialGradient
       inkscape:collect="always"
       xlink:href="#linearGradient6054"
       id="radialGradient9271"
       gradientUnits="userSpaceOnUse"
       gradientTransform="matrix(1.3159933,-0.60685261,0.666908,1.4462267,-154.18865,-27.122666)"
       cx="92.687035"
       cy="186.65468"
       fx="92.687035"
       fy="186.65468"
       r="39.515625" />
    <linearGradient
       id="linearGradient6054">
      <stop
         style="stop-color:black;stop-opacity:1;"
         offset="0"
         id="stop6056" />
      <stop
         id="stop6062"
         offset="0.5"
         style="stop-color:#4d4d4d;stop-opacity:1" />
      <stop
         style="stop-color:#333;stop-opacity:1"
         offset="1"
         id="stop6058" />
    </linearGradient>
    <linearGradient
       inkscape:collect="always"
       xlink:href="#linearGradient6104"
       id="linearGradient9273"
       gradientUnits="userSpaceOnUse"
       x1="140.89264"
       y1="126.12918"
       x2="116.80352"
       y2="144.19598" />
    <linearGradient
       inkscape:collect="always"
       id="linearGradient6104">
      <stop
         style="stop-color:white;stop-opacity:1;"
         offset="0"
         id="stop6106" />
      <stop
         style="stop-color:white;stop-opacity:0;"
         offset="1"
         id="stop6108" />
    </linearGradient>
    <filter
       inkscape:collect="always"
       id="filter6094"
       x="-0.11368966"
       width="1.2273793"
       y="-0.06660606"
       height="1.1332121"
       color-interpolation-filters="sRGB">
      <feGaussianBlur
         inkscape:collect="always"
         stdDeviation="1.2256439"
         id="feGaussianBlur6096" />
    </filter>
    <linearGradient
       inkscape:collect="always"
       xlink:href="#linearGradient7242"
       id="linearGradient9275"
       gradientUnits="userSpaceOnUse"
       gradientTransform="matrix(0.55555554,0,0,1.1532258,353.36962,507.29042)"
       x1="20.520334"
       y1="-1324.1096"
       x2="28.55003"
       y2="-1324.1096" />
    <linearGradient
       inkscape:collect="always"
       id="linearGradient7242">
      <stop
         id="stop7246"
         offset="0"
         style="stop-color:#ccc;stop-opacity:1" />
      <stop
         style="stop-color:white;stop-opacity:1"
         offset="0.54761899"
         id="stop7260" />
      <stop
         id="stop7244"
         offset="1"
         style="stop-color:#999;stop-opacity:1;" />
    </linearGradient>
    <radialGradient
       inkscape:collect="always"
       xlink:href="#linearGradient5918"
       id="radialGradient9277"
       gradientUnits="userSpaceOnUse"
       gradientTransform="matrix(1.0858214,-0.47136177,0.67308433,1.5505063,-135.48118,-58.604596)"
       cx="98.064865"
       cy="188.78038"
       fx="98.064865"
       fy="188.78038"
       r="40.425415" />
    <radialGradient
       inkscape:collect="always"
       xlink:href="#linearGradient6054"
       id="radialGradient9279"
       gradientUnits="userSpaceOnUse"
       gradientTransform="matrix(1.3159933,-0.60685261,0.666908,1.4462267,-154.18865,-27.122666)"
       cx="92.687035"
       cy="186.65468"
       fx="92.687035"
       fy="186.65468"
       r="39.515625" />
    <linearGradient
       id="linearGradient9613">
      <stop
         style="stop-color:black;stop-opacity:1;"
         offset="0"
         id="stop9615" />
      <stop
         id="stop9617"
         offset="0.5"
         style="stop-color:#4d4d4d;stop-opacity:1" />
      <stop
         style="stop-color:#333;stop-opacity:1"
         offset="1"
         id="stop9619" />
    </linearGradient>
    <linearGradient
       inkscape:collect="always"
       xlink:href="#linearGradient6104"
       id="linearGradient9281"
       gradientUnits="userSpaceOnUse"
       x1="140.89264"
       y1="126.12918"
       x2="116.80352"
       y2="144.19598" />
    <linearGradient
       inkscape:collect="always"
       xlink:href="#linearGradient7242"
       id="linearGradient9283"
       gradientUnits="userSpaceOnUse"
       gradientTransform="matrix(0.55555554,0,0,1.1532258,353.36962,507.29042)"
       x1="20.520334"
       y1="-1324.1096"
       x2="28.55003"
       y2="-1324.1096" />
  </defs>
  <sodipodi:namedview
     id="base"
     pagecolor="#ffffff"
     bordercolor="#666666"
     borderopacity="1.0"
     inkscape:pageopacity="0.0"
     inkscape:pageshadow="2"
     inkscape:zoom="0.35"
     inkscape:cx="93.687346"
     inkscape:cy="26.563579"
     inkscape:document-units="px"
     inkscape:current-layer="layer1"
     showgrid="false"
     fit-margin-left="5"
     fit-margin-top="5"
     fit-margin-right="5"
     fit-margin-bottom="5"
     inkscape:window-width="1280"
     inkscape:window-height="965"
     inkscape:window-x="0"
     inkscape:window-y="27"
     inkscape:window-maximized="1" />
  <metadata
     id="metadata9671">
    <rdf:RDF>
      <cc:Work
         rdf:about="">
        <dc:format>image/svg+xml</dc:format>
        <dc:type
           rdf:resource="http://purl.org/dc/dcmitype/StillImage" />
        <dc:title></dc:title>
      </cc:Work>
    </rdf:RDF>
  </metadata>
  <g
     inkscape:label="Ebene 1"
     inkscape:groupmode="layer"
     id="layer1"
     transform="translate(-256.31265,-442.94146)">
    <g
       id="g7412"
       transform="matrix(0.67119041,0,0,0.67119041,67.27524,672.95758)">
      <path
         id="path7269"
         d="m 481.65625,-328.375 -67.3125,86.3125 -66.3125,-85.0625 -4.34375,4.25 1.09375,1.40625 c -2.5358,2.17625 -11.96083,10.48292 -15.75,16.59375 -4.70325,7.58497 -4.35488,18.32127 -9.4375,25.59375 -4.43836,6.35062 -12.22497,8.74083 -17.40625,14.34375 -2.40721,2.60309 -6.21875,8.8125 -6.21875,8.8125 l 37.0625,54.15625 c 0,0 0.40611,-0.48148 0.5,-0.59375 l 0.1875,0.28125 c 0,0 3.30317,-3.96139 7.4375,-8.4375 l -0.1875,-0.21875 c 2.78844,-2.9971 5.85531,-6.1412 8.625,-8.5 l 0.15625,0.1875 c 0.99309,-0.86965 1.92793,-1.67288 2.8125,-2.3125 2.3759,-1.718 5.02057,-2.88934 7.6875,-4 1.44357,-0.59321 2.89142,-1.18258 4.3125,-1.8125 0.24574,-0.10564 0.50575,-0.2041 0.75,-0.3125 0.12414,-0.0551 0.25074,-0.102 0.375,-0.15625 0.0517,-0.0218 0.10448,-0.0408 0.15625,-0.0625 5.51079,-2.30872 11.28017,-3.91053 16.6875,-6.46875 0.0723,-0.0329 0.14654,-0.0607 0.21875,-0.0937 0.0293,-0.014 0.0645,-0.0172 0.0937,-0.0312 1.0478,-0.48092 2.07824,-0.99726 3.09375,-1.5625 0.71608,-0.39859 1.52209,-0.91345 2.34375,-1.4375 l 0.15625,-0.25 c 1.32644,-0.87287 2.72326,-1.83176 4.125,-2.84375 l 0.0937,0.125 c 3.76207,-2.68898 7.47486,-5.53636 9.625,-7.25 l 8.25,10.5625 -36.96875,47.4375 4.3125,4.21875 36.46875,-46.75 37.46875,48.03125 4.34375,-4.21875 -38,-48.71875 9.25,-11.875 c 2.1483,1.71249 5.85602,4.61857 9.625,7.3125 l 0.0937,-0.125 c 1.39564,1.00748 2.80388,1.94281 4.125,2.8125 0.0117,0.008 0.0195,0.0236 0.0312,0.0312 l 0.125,0.25 c 0.82166,0.52405 1.62767,1.03891 2.34375,1.4375 1.01164,0.56309 2.04999,1.02075 3.09375,1.5 0.0338,0.0163 0.0599,0.0463 0.0937,0.0625 0.0934,0.0428 0.18775,0.0825 0.28125,0.125 4.95814,2.33781 10.22743,3.88493 15.3125,5.90625 0.61535,0.25295 1.23186,0.50967 1.84375,0.78125 0.14164,0.0629 0.29115,0.099 0.4375,0.15625 0.0945,0.0414 0.1869,0.0831 0.28125,0.125 0.009,0.004 0.0223,-0.004 0.0312,0 1.42349,0.63098 2.8665,1.24948 4.3125,1.84375 2.66693,1.11066 5.3116,2.282 7.6875,4 0.88457,0.63962 1.81941,1.4116 2.8125,2.28125 l 0.125,-0.1875 c 2.778,2.3617 5.85647,5.52195 8.65625,8.53125 l -0.1875,0.21875 c 4.13433,4.47611 7.4375,8.4375 7.4375,8.4375 l 0.1875,-0.28125 c 0.0883,0.10567 0.5,0.5625 0.5,0.5625 l 37.0625,-54.125 c 0,0 -3.81154,-6.24066 -6.21875,-8.84375 -5.18128,-5.60292 -12.96789,-7.96188 -17.40625,-14.3125 -5.08262,-7.27248 -4.73425,-18.04003 -9.4375,-25.625 -3.79882,-6.12639 -13.27669,-14.414 -15.78125,-16.5625 l 1.125,-1.4375 -4.34375,-4.21875 z"
         style="opacity:0.5;fill:black;stroke:none;filter:url(#filter7408)"
         inkscape:connector-curvature="0" />
      <g
         transform="matrix(0.89422274,0,0,1,507.96108,627.08724)"
         id="g6226">
        <g
           id="g6174"
           transform="matrix(-0.61023312,1.3065117,1.3065117,0.61023312,1244.403,-122.27344)">
          <g
             transform="translate(-168.62361,-1271.3685)"
             id="g6176">
            <path
               sodipodi:nodetypes="caaaccaaacc"
               inkscape:connector-curvature="0"
               id="path6178"
               d="m 67.287103,132.82059 c 0,0 10.65365,-5.69088 16.50549,-6.69141 6.30937,-1.07876 12.94452,2.32922 19.182047,0.89219 5.44686,-1.25488 9.50021,-6.03338 14.72109,-8.0297 2.4256,-0.92749 7.5836,-1.78438 7.5836,-1.78438 l 21.8586,41.93286 c 0,0 -12.6975,4.07866 -18.2898,7.5836 -3.0344,1.90179 -5.4242,4.68075 -8.0297,7.13751 -4.13105,3.89519 -7.6012,8.50979 -12.04457,12.04454 -4.39125,3.4933 -14.275007,8.92189 -14.275007,8.92189 z"
               style="opacity:0.3;fill:black;stroke:none;filter:url(#filter5946)" />
            <path
               style="fill:url(#radialGradient9269);stroke:none"
               d="m 67.287103,132.82059 c 0,0 10.65365,-5.69088 16.50549,-6.69141 6.30937,-1.07876 12.94452,2.32922 19.182047,0.89219 5.44686,-1.25488 9.50021,-6.03338 14.72109,-8.0297 2.4256,-0.92749 7.5836,-1.78438 7.5836,-1.78438 l 21.8586,41.93286 c 0,0 -12.6975,4.07866 -18.2898,7.5836 -3.0344,1.90179 -5.4242,4.68075 -8.0297,7.13751 -4.13105,3.89519 -7.6012,8.50979 -12.04457,12.04454 -4.39125,3.4933 -14.275007,8.92189 -14.275007,8.92189 z"
               id="path6180"
               inkscape:connector-curvature="0"
               sodipodi:nodetypes="caaaccaaacc" />
            <path
               style="color:black;fill:url(#radialGradient9271);fill-opacity:1;fill-rule:nonzero;stroke:none;stroke-width:4;marker:none;visibility:visible;display:inline;overflow:visible;enable-background:accumulate"
               d="m 124.85314,117.62686 c 0,0 -2.59435,0.41834 -4.96875,1 l 3.3125,7.625 5.625,-1.03125 -3.96875,-7.59375 z m -13.03125,4.84375 c -2.54526,1.72639 -5.02077,3.57399 -7.84375,4.5625 l 1.0625,2.4375 -8.874997,1.625 4.624997,10.5625 -8.843747,1.625 4.71875,10.75 -8.53125,1.5625 4.625,10.5625 -8.84375,1.625 4.71875,10.75 -1.75,0.3125 4.75,10.8125 1.9375,-0.34375 -4.71875,-10.71875 8.9375,-1.625 -4.65625,-10.59375 8.843747,-1.625 -4.687497,-10.71875 8.499997,-1.5625 -4.625,-10.5625 8.875,-1.625 -4.71875,-10.75 8.875,-1.625 -2.375,-5.4375 z m -26.062497,3.84375 c -0.398719,0.006 -0.790796,0.0279 -1.1875,0.0625 l 2.5,5.78125 -8.5,1.5625 4.625,10.5625 -8.84375,1.625 4.6875,10.75 -1.75,0.3125 4.75,10.8125 1.9375,-0.34375 -4.6875,-10.71875 8.90625,-1.625 -4.625,-10.59375 8.8125,-1.625 -4.6875,-10.71875 8.5,-1.5625 -1.40625,-3.1875 c -3.014349,-0.44976 -6.045847,-1.1419 -9.03125,-1.09375 z m 37.499997,0.4375 -9.09375,1.65625 4.65625,10.59375 -8.875,1.625 4.6875,10.71875 -8.875,1.625 4.625,10.5625 -8.84375,1.625 4.71875,10.75 -8.531247,1.5625 4.624997,10.5625 -8.843747,1.625 2.09375,4.75 c 1.776196,-1.00348 4.832837,-2.78664 7.781247,-4.65625 l -0.65625,-1.5 3.96875,-0.71875 c 0.59893,-0.42354 1.1708,-0.83257 1.65625,-1.21875 0.76936,-0.61204 1.49926,-1.27006 2.21875,-1.9375 l -3.71875,-8.46875 8.5,-1.5625 -4.625,-10.5625 8.875,-1.625 -4.6875,-10.75 8.875,-1.625 -4.625,-10.5625 8.84375,-1.625 -4.75,-10.84375 z m -46.624997,1.9375 c -3.297415,1.32885 -6.39308,2.80803 -8.1875,3.71875 l 1.03125,2.375 -1.78125,0.34375 4.75,10.8125 1.96875,-0.375 -4.71875,-10.71875 8.90625,-1.625 -1.96875,-4.53125 z m 57.874997,7.4375 -6.46875,1.1875 4.75,10.8125 7.28125,-1.3125 -5.5625,-10.6875 z m -1.6875,12.5 -9.0625,1.65625 4.625,10.59375 -8.875,1.625 3.875,8.84375 c 1.57311,-1.54797 3.17205,-3.05351 5.03125,-4.21875 0.69219,-0.43383 1.50266,-0.86992 2.375,-1.3125 l -2.0625,-4.71875 8.84375,-1.625 -4.75,-10.84375 z m 12.9375,9.0625 -8.125,1.5 1.34375,3.09375 c 4.16928,-1.59137 7.75,-2.75 7.75,-2.75 l -0.96875,-1.84375 z m -24.9375,16.15625 -5.46875,1 1.375,3.15625 c 1.19091,-1.27934 2.38805,-2.52296 3.65625,-3.71875 0.14827,-0.13981 0.29047,-0.29583 0.4375,-0.4375 z"
               id="path6182"
               inkscape:connector-curvature="0" />
            <path
               sodipodi:nodetypes="caaaccaaacc"
               inkscape:connector-curvature="0"
               id="path6184"
               d="m 67.287103,132.82059 c 0,0 10.65365,-5.69088 16.50549,-6.69141 6.30937,-1.07876 12.94452,2.32922 19.182047,0.89219 5.44686,-1.25488 9.50021,-6.03338 14.72109,-8.0297 2.4256,-0.92749 7.5836,-1.78438 7.5836,-1.78438 l 21.8586,41.93286 c 0,0 -12.6975,4.07866 -18.2898,7.5836 -3.0344,1.90179 -5.4242,4.68075 -8.0297,7.13751 -4.13105,3.89519 -7.6012,8.50979 -12.04457,12.04454 -4.39125,3.4933 -14.275007,8.92189 -14.275007,8.92189 z"
               style="fill:url(#linearGradient9273);stroke:none" />
            <path
               style="opacity:0.52743901;fill:#666;stroke:none;filter:url(#filter6094)"
               d="m 97.844538,131.25927 21.189472,43.04809 c 0,0 0.94344,-2.42021 1.90063,-3.21722 0.75941,-0.63232 2.78336,-1.02067 2.78336,-1.02067 l -20.52034,-39.92544 c 0,0 -1.37303,1.56459 -2.32511,1.77621 -1.008486,0.22417 -3.028012,-0.66097 -3.028012,-0.66097 z"
               id="path6186"
               inkscape:connector-curvature="0"
               sodipodi:nodetypes="ccaccac" />
            <path
               sodipodi:nodetypes="ccaccac"
               inkscape:connector-curvature="0"
               id="path6188"
               d="m 82.304383,128.15012 21.189477,43.04809 c 0,0 0.94344,-2.42021 1.90063,-3.21722 0.75941,-0.63232 2.78336,-1.02067 2.78336,-1.02067 L 87.657509,127.03488 c 0,0 -1.37303,1.56459 -2.32511,1.77621 -1.00849,0.22417 -3.028016,-0.66097 -3.028016,-0.66097 z"
               style="opacity:0.52743901;fill:white;stroke:none;filter:url(#filter6094)"
               transform="matrix(1.1545204,0,0,1.2807787,-13.228509,-34.744758)" />
          </g>
          <rect
             transform="matrix(0.91441128,-0.40478639,0.40478639,0.91441128,0,0)"
             y="-1083.4984"
             x="364.76981"
             height="127.58294"
             width="4.4609418"
             id="rect6190"
             style="color:black;fill:url(#linearGradient9275);fill-opacity:1;fill-rule:nonzero;stroke:none;stroke-width:4;marker:none;visibility:visible;display:inline;overflow:visible;enable-background:accumulate" />
        </g>
        <g
           transform="matrix(0.61023312,1.3065117,-1.3065117,0.61023312,-1452.6654,-123.53518)"
           id="g6200">
          <g
             id="g6202"
             transform="translate(-168.62361,-1271.3685)">
            <path
               style="opacity:0.3;fill:black;stroke:none;filter:url(#filter5946)"
               d="m 67.287103,132.82059 c 0,0 10.65365,-5.69088 16.50549,-6.69141 6.30937,-1.07876 12.94452,2.32922 19.182047,0.89219 5.44686,-1.25488 9.50021,-6.03338 14.72109,-8.0297 2.4256,-0.92749 7.5836,-1.78438 7.5836,-1.78438 l 21.8586,41.93286 c 0,0 -12.6975,4.07866 -18.2898,7.5836 -3.0344,1.90179 -5.4242,4.68075 -8.0297,7.13751 -4.13105,3.89519 -7.6012,8.50979 -12.04457,12.04454 -4.39125,3.4933 -14.275007,8.92189 -14.275007,8.92189 z"
               id="path6204"
               inkscape:connector-curvature="0"
               sodipodi:nodetypes="caaaccaaacc" />
            <path
               sodipodi:nodetypes="caaaccaaacc"
               inkscape:connector-curvature="0"
               id="path6206"
               d="m 67.287103,132.82059 c 0,0 10.65365,-5.69088 16.50549,-6.69141 6.30937,-1.07876 12.94452,2.32922 19.182047,0.89219 5.44686,-1.25488 9.50021,-6.03338 14.72109,-8.0297 2.4256,-0.92749 7.5836,-1.78438 7.5836,-1.78438 l 21.8586,41.93286 c 0,0 -12.6975,4.07866 -18.2898,7.5836 -3.0344,1.90179 -5.4242,4.68075 -8.0297,7.13751 -4.13105,3.89519 -7.6012,8.50979 -12.04457,12.04454 -4.39125,3.4933 -14.275007,8.92189 -14.275007,8.92189 z"
               style="fill:url(#radialGradient9277);stroke:none" />
            <path
               inkscape:connector-curvature="0"
               id="path6208"
               d="m 124.85314,117.62686 c 0,0 -2.59435,0.41834 -4.96875,1 l 3.3125,7.625 5.625,-1.03125 -3.96875,-7.59375 z m -13.03125,4.84375 c -2.54526,1.72639 -5.02077,3.57399 -7.84375,4.5625 l 1.0625,2.4375 -8.874997,1.625 4.624997,10.5625 -8.843747,1.625 4.71875,10.75 -8.53125,1.5625 4.625,10.5625 -8.84375,1.625 4.71875,10.75 -1.75,0.3125 4.75,10.8125 1.9375,-0.34375 -4.71875,-10.71875 8.9375,-1.625 -4.65625,-10.59375 8.843747,-1.625 -4.687497,-10.71875 8.499997,-1.5625 -4.625,-10.5625 8.875,-1.625 -4.71875,-10.75 8.875,-1.625 -2.375,-5.4375 z m -26.062497,3.84375 c -0.398719,0.006 -0.790796,0.0279 -1.1875,0.0625 l 2.5,5.78125 -8.5,1.5625 4.625,10.5625 -8.84375,1.625 4.6875,10.75 -1.75,0.3125 4.75,10.8125 1.9375,-0.34375 -4.6875,-10.71875 8.90625,-1.625 -4.625,-10.59375 8.8125,-1.625 -4.6875,-10.71875 8.5,-1.5625 -1.40625,-3.1875 c -3.014349,-0.44976 -6.045847,-1.1419 -9.03125,-1.09375 z m 37.499997,0.4375 -9.09375,1.65625 4.65625,10.59375 -8.875,1.625 4.6875,10.71875 -8.875,1.625 4.625,10.5625 -8.84375,1.625 4.71875,10.75 -8.531247,1.5625 4.624997,10.5625 -8.843747,1.625 2.09375,4.75 c 1.776196,-1.00348 4.832837,-2.78664 7.781247,-4.65625 l -0.65625,-1.5 3.96875,-0.71875 c 0.59893,-0.42354 1.1708,-0.83257 1.65625,-1.21875 0.76936,-0.61204 1.49926,-1.27006 2.21875,-1.9375 l -3.71875,-8.46875 8.5,-1.5625 -4.625,-10.5625 8.875,-1.625 -4.6875,-10.75 8.875,-1.625 -4.625,-10.5625 8.84375,-1.625 -4.75,-10.84375 z m -46.624997,1.9375 c -3.297415,1.32885 -6.39308,2.80803 -8.1875,3.71875 l 1.03125,2.375 -1.78125,0.34375 4.75,10.8125 1.96875,-0.375 -4.71875,-10.71875 8.90625,-1.625 -1.96875,-4.53125 z m 57.874997,7.4375 -6.46875,1.1875 4.75,10.8125 7.28125,-1.3125 -5.5625,-10.6875 z m -1.6875,12.5 -9.0625,1.65625 4.625,10.59375 -8.875,1.625 3.875,8.84375 c 1.57311,-1.54797 3.17205,-3.05351 5.03125,-4.21875 0.69219,-0.43383 1.50266,-0.86992 2.375,-1.3125 l -2.0625,-4.71875 8.84375,-1.625 -4.75,-10.84375 z m 12.9375,9.0625 -8.125,1.5 1.34375,3.09375 c 4.16928,-1.59137 7.75,-2.75 7.75,-2.75 l -0.96875,-1.84375 z m -24.9375,16.15625 -5.46875,1 1.375,3.15625 c 1.19091,-1.27934 2.38805,-2.52296 3.65625,-3.71875 0.14827,-0.13981 0.29047,-0.29583 0.4375,-0.4375 z"
               style="color:black;fill:url(#radialGradient9279);fill-opacity:1;fill-rule:nonzero;stroke:none;stroke-width:4;marker:none;visibility:visible;display:inline;overflow:visible;enable-background:accumulate" />
            <path
               style="fill:url(#linearGradient9281);stroke:none"
               d="m 67.287103,132.82059 c 0,0 10.65365,-5.69088 16.50549,-6.69141 6.30937,-1.07876 12.94452,2.32922 19.182047,0.89219 5.44686,-1.25488 9.50021,-6.03338 14.72109,-8.0297 2.4256,-0.92749 7.5836,-1.78438 7.5836,-1.78438 l 21.8586,41.93286 c 0,0 -12.6975,4.07866 -18.2898,7.5836 -3.0344,1.90179 -5.4242,4.68075 -8.0297,7.13751 -4.13105,3.89519 -7.6012,8.50979 -12.04457,12.04454 -4.39125,3.4933 -14.275007,8.92189 -14.275007,8.92189 z"
               id="path6210"
               inkscape:connector-curvature="0"
               sodipodi:nodetypes="caaaccaaacc" />
            <path
               sodipodi:nodetypes="ccaccac"
               inkscape:connector-curvature="0"
               id="path6212"
               d="m 97.844538,131.25927 21.189472,43.04809 c 0,0 0.94344,-2.42021 1.90063,-3.21722 0.75941,-0.63232 2.78336,-1.02067 2.78336,-1.02067 l -20.52034,-39.92544 c 0,0 -1.37303,1.56459 -2.32511,1.77621 -1.008486,0.22417 -3.028012,-0.66097 -3.028012,-0.66097 z"
               style="opacity:0.52743901;fill:#666;stroke:none;filter:url(#filter6094)" />
            <path
               transform="matrix(1.1545204,0,0,1.2807787,-13.228509,-34.744758)"
               style="opacity:0.52743901;fill:white;stroke:none;filter:url(#filter6094)"
               d="m 82.304383,128.15012 21.189477,43.04809 c 0,0 0.94344,-2.42021 1.90063,-3.21722 0.75941,-0.63232 2.78336,-1.02067 2.78336,-1.02067 L 87.657509,127.03488 c 0,0 -1.37303,1.56459 -2.32511,1.77621 -1.00849,0.22417 -3.028016,-0.66097 -3.028016,-0.66097 z"
               id="path6214"
               inkscape:connector-curvature="0"
               sodipodi:nodetypes="ccaccac" />
          </g>
          <rect
             style="color:black;fill:url(#linearGradient9283);fill-opacity:1;fill-rule:nonzero;stroke:none;stroke-width:4;marker:none;visibility:visible;display:inline;overflow:visible;enable-background:accumulate"
             id="rect6216"
             width="4.4609418"
             height="127.58294"
             x="364.76981"
             y="-1083.4984"
             transform="matrix(0.91441128,-0.40478639,0.40478639,0.91441128,0,0)" />
        </g>
      </g>
    </g>
  </g>
</svg>
