<svg viewBox="0 0 800 500" xmlns="http://www.w3.org/2000/svg" xmlns:xlink="http://www.w3.org/1999/xlink">
 <defs>
  <linearGradient id="imagebot_122">
   <stop stop-color="#2d2d2d" id="imagebot_172" offset="0"/>
   <stop stop-color="#b50000" id="imagebot_171" offset="1"/>
  </linearGradient>
  <radialGradient gradientUnits="userSpaceOnUse" gradientTransform="matrix(-1.44593 1.23386 -1.32556 -1.55338 2299.07 2257.13)" r="39.45139" fy="1358.8124" fx="203.92857" cy="1358.8124" cx="203.92857" id="imagebot_11" xlink:href="#imagebot_168"/>
  <linearGradient id="imagebot_168">
   <stop stop-color="#dc0000" id="imagebot_170" offset="0"/>
   <stop stop-color="#0e232e" id="imagebot_169" offset="1"/>
  </linearGradient>
  <radialGradient gradientUnits="userSpaceOnUse" gradientTransform="matrix(-1.1996501,0.12325736,-0.06677579,-0.67242905,563.01264,2195.1018)" r="88.77578" fy="1327.9059" fx="215.64369" cy="1327.9059" cx="215.64369" id="imagebot_13" xlink:href="#imagebot_121"/>
  <linearGradient id="imagebot_121">
   <stop stop-color="#ffffff" offset="0" id="imagebot_167"/>
   <stop stop-color="#666666" offset="1" id="imagebot_166"/>
  </linearGradient>
  <radialGradient r="122.23437" fy="1350.5" fx="604.67419" cy="1350.5" cx="604.67419" gradientTransform="matrix(-0.840021 0.995581 -2.08571 -1.75982 3431.77 1853.79)" gradientUnits="userSpaceOnUse" id="imagebot_117" xlink:href="#imagebot_139"/>
  <linearGradient id="imagebot_139">
   <stop stop-color="#ffffff" id="imagebot_141" offset="0"/>
   <stop stop-color="#666666" id="imagebot_140" offset="1"/>
  </linearGradient>
  <linearGradient id="imagebot_135">
   <stop stop-color="#ffffff" id="imagebot_137" offset="0"/>
   <stop stop-color="#cccccc" id="imagebot_136" offset="1"/>
  </linearGradient>
  <radialGradient xlink:href="#imagebot_135" id="imagebot_119" gradientUnits="userSpaceOnUse" gradientTransform="matrix(-2.62166 -0.248415 0.458662 -4.84051 360.786 7246.4)" cx="279.2453" cy="1436.0243" fx="279.2453" fy="1436.0243" r="129.24382"/>
  <radialGradient r="10.6066" fy="836.93555" fx="444.33051" cy="836.93555" cx="444.33051" gradientTransform="matrix(-2.86836 0.286835 -0.178574 -1.78575 1697.4 1773.22)" gradientUnits="userSpaceOnUse" id="imagebot_5" xlink:href="#imagebot_122"/>
  <radialGradient r="88.77578" fy="1327.9059" fx="215.64369" cy="1327.9059" cx="215.64369" gradientTransform="matrix(-1.1996501,0.12325736,-0.06677579,-0.67242905,563.01264,2195.1018)" gradientUnits="userSpaceOnUse" id="imagebot_91" xlink:href="#imagebot_121"/>
  <radialGradient r="88.77578" fy="1327.9059" fx="215.64369" cy="1327.9059" cx="215.64369" gradientTransform="matrix(-1.1996501,0.12325736,-0.06677579,-0.67242905,563.01264,2195.1018)" gradientUnits="userSpaceOnUse" id="imagebot_89" xlink:href="#imagebot_121"/>
  <radialGradient r="88.77578" fy="1327.9059" fx="215.64369" cy="1327.9059" cx="215.64369" gradientTransform="matrix(-1.1996501,0.12325736,-0.06677579,-0.67242905,563.01264,2195.1018)" gradientUnits="userSpaceOnUse" id="imagebot_87" xlink:href="#imagebot_121"/>
  <radialGradient r="88.77578" fy="1327.9059" fx="215.64369" cy="1327.9059" cx="215.64369" gradientTransform="matrix(-1.1996501,0.12325736,-0.06677579,-0.67242905,563.01264,2195.1018)" gradientUnits="userSpaceOnUse" id="imagebot_85" xlink:href="#imagebot_121"/>
  <radialGradient r="88.77578" fy="1327.9059" fx="215.64369" cy="1327.9059" cx="215.64369" gradientTransform="matrix(-1.1996501,0.12325736,-0.06677579,-0.67242905,563.01264,2195.1018)" gradientUnits="userSpaceOnUse" id="imagebot_83" xlink:href="#imagebot_121"/>
  <radialGradient r="88.77578" fy="1327.9059" fx="215.64369" cy="1327.9059" cx="215.64369" gradientTransform="matrix(-1.1996501,0.12325736,-0.06677579,-0.67242905,563.01264,2195.1018)" gradientUnits="userSpaceOnUse" id="imagebot_81" xlink:href="#imagebot_121"/>
  <radialGradient r="88.77578" fy="1327.9059" fx="215.64369" cy="1327.9059" cx="215.64369" gradientTransform="matrix(-1.1996501,0.12325736,-0.06677579,-0.67242905,563.01264,2195.1018)" gradientUnits="userSpaceOnUse" id="imagebot_79" xlink:href="#imagebot_121"/>
  <radialGradient r="88.77578" fy="1327.9059" fx="215.64369" cy="1327.9059" cx="215.64369" gradientTransform="matrix(-1.1996501,0.12325736,-0.06677579,-0.67242905,563.01264,2195.1018)" gradientUnits="userSpaceOnUse" id="imagebot_77" xlink:href="#imagebot_121"/>
  <radialGradient r="88.77578" fy="1327.9059" fx="215.64369" cy="1327.9059" cx="215.64369" gradientTransform="matrix(-1.1996501,0.12325736,-0.06677579,-0.67242905,563.01264,2195.1018)" gradientUnits="userSpaceOnUse" id="imagebot_75" xlink:href="#imagebot_121"/>
  <radialGradient r="88.77578" fy="1327.9059" fx="215.64369" cy="1327.9059" cx="215.64369" gradientTransform="matrix(-1.1996501,0.12325736,-0.06677579,-0.67242905,563.01264,2195.1018)" gradientUnits="userSpaceOnUse" id="imagebot_73" xlink:href="#imagebot_121"/>
  <radialGradient r="88.77578" fy="1327.9059" fx="215.64369" cy="1327.9059" cx="215.64369" gradientTransform="matrix(-1.1996501,0.12325736,-0.06677579,-0.67242905,563.01264,2195.1018)" gradientUnits="userSpaceOnUse" id="imagebot_71" xlink:href="#imagebot_121"/>
  <radialGradient r="88.77578" fy="1327.9059" fx="215.64369" cy="1327.9059" cx="215.64369" gradientTransform="matrix(-1.1996501,0.12325736,-0.06677579,-0.67242905,563.01264,2195.1018)" gradientUnits="userSpaceOnUse" id="imagebot_69" xlink:href="#imagebot_121"/>
  <radialGradient r="88.77578" fy="1327.9059" fx="215.64369" cy="1327.9059" cx="215.64369" gradientTransform="matrix(-1.1996501,0.12325736,-0.06677579,-0.67242905,563.01264,2195.1018)" gradientUnits="userSpaceOnUse" id="imagebot_67" xlink:href="#imagebot_121"/>
  <radialGradient r="88.77578" fy="1327.9059" fx="215.64369" cy="1327.9059" cx="215.64369" gradientTransform="matrix(-1.1996501,0.12325736,-0.06677579,-0.67242905,563.01264,2195.1018)" gradientUnits="userSpaceOnUse" id="imagebot_65" xlink:href="#imagebot_121"/>
  <radialGradient r="88.77578" fy="1327.9059" fx="215.64369" cy="1327.9059" cx="215.64369" gradientTransform="matrix(-1.1996501,0.12325736,-0.06677579,-0.67242905,563.01264,2195.1018)" gradientUnits="userSpaceOnUse" id="imagebot_63" xlink:href="#imagebot_121"/>
  <radialGradient r="88.77578" fy="1327.9059" fx="215.64369" cy="1327.9059" cx="215.64369" gradientTransform="matrix(-1.1996501,0.12325736,-0.06677579,-0.67242905,563.01264,2195.1018)" gradientUnits="userSpaceOnUse" id="imagebot_61" xlink:href="#imagebot_121"/>
  <radialGradient r="88.77578" fy="1327.9059" fx="215.64369" cy="1327.9059" cx="215.64369" gradientTransform="matrix(-1.1996501,0.12325736,-0.06677579,-0.67242905,563.01264,2195.1018)" gradientUnits="userSpaceOnUse" id="imagebot_59" xlink:href="#imagebot_121"/>
  <radialGradient r="88.77578" fy="1327.9059" fx="215.64369" cy="1327.9059" cx="215.64369" gradientTransform="matrix(-1.1996501,0.12325736,-0.06677579,-0.67242905,563.01264,2195.1018)" gradientUnits="userSpaceOnUse" id="imagebot_57" xlink:href="#imagebot_121"/>
  <radialGradient r="88.77578" fy="1327.9059" fx="215.64369" cy="1327.9059" cx="215.64369" gradientTransform="matrix(-1.1996501,0.12325736,-0.06677579,-0.67242905,563.01264,2195.1018)" gradientUnits="userSpaceOnUse" id="imagebot_55" xlink:href="#imagebot_121"/>
  <radialGradient r="88.77578" fy="1327.9059" fx="215.64369" cy="1327.9059" cx="215.64369" gradientTransform="matrix(-1.1996501,0.12325736,-0.06677579,-0.67242905,563.01264,2195.1018)" gradientUnits="userSpaceOnUse" id="imagebot_53" xlink:href="#imagebot_121"/>
  <radialGradient r="88.77578" fy="1327.9059" fx="215.64369" cy="1327.9059" cx="215.64369" gradientTransform="matrix(-1.1996501,0.12325736,-0.06677579,-0.67242905,563.01264,2195.1018)" gradientUnits="userSpaceOnUse" id="imagebot_51" xlink:href="#imagebot_121"/>
  <radialGradient r="88.77578" fy="1327.9059" fx="215.64369" cy="1327.9059" cx="215.64369" gradientTransform="matrix(-1.1996501,0.12325736,-0.06677579,-0.67242905,563.01264,2195.1018)" gradientUnits="userSpaceOnUse" id="imagebot_49" xlink:href="#imagebot_121"/>
  <radialGradient r="88.77578" fy="1327.9059" fx="215.64369" cy="1327.9059" cx="215.64369" gradientTransform="matrix(-1.1996501,0.12325736,-0.06677579,-0.67242905,563.01264,2195.1018)" gradientUnits="userSpaceOnUse" id="imagebot_47" xlink:href="#imagebot_121"/>
  <radialGradient r="88.77578" fy="1327.9059" fx="215.64369" cy="1327.9059" cx="215.64369" gradientTransform="matrix(-1.1996501,0.12325736,-0.06677579,-0.67242905,563.01264,2195.1018)" gradientUnits="userSpaceOnUse" id="imagebot_45" xlink:href="#imagebot_121"/>
  <radialGradient r="88.77578" fy="1327.9059" fx="215.64369" cy="1327.9059" cx="215.64369" gradientTransform="matrix(-1.1996501,0.12325736,-0.06677579,-0.67242905,563.01264,2195.1018)" gradientUnits="userSpaceOnUse" id="imagebot_43" xlink:href="#imagebot_121"/>
  <radialGradient r="88.77578" fy="1327.9059" fx="215.64369" cy="1327.9059" cx="215.64369" gradientTransform="matrix(-1.1996501,0.12325736,-0.06677579,-0.67242905,563.01264,2195.1018)" gradientUnits="userSpaceOnUse" id="imagebot_41" xlink:href="#imagebot_121"/>
  <radialGradient r="88.77578" fy="1327.9059" fx="215.64369" cy="1327.9059" cx="215.64369" gradientTransform="matrix(-1.1996501,0.12325736,-0.06677579,-0.67242905,563.01264,2195.1018)" gradientUnits="userSpaceOnUse" id="imagebot_39" xlink:href="#imagebot_121"/>
  <radialGradient r="88.77578" fy="1327.9059" fx="215.64369" cy="1327.9059" cx="215.64369" gradientTransform="matrix(-1.1996501,0.12325736,-0.06677579,-0.67242905,563.01264,2195.1018)" gradientUnits="userSpaceOnUse" id="imagebot_37" xlink:href="#imagebot_121"/>
  <radialGradient r="88.77578" fy="1327.9059" fx="215.64369" cy="1327.9059" cx="215.64369" gradientTransform="matrix(-1.1996501,0.12325736,-0.06677579,-0.67242905,563.01264,2195.1018)" gradientUnits="userSpaceOnUse" id="imagebot_35" xlink:href="#imagebot_121"/>
  <radialGradient r="88.77578" fy="1327.9059" fx="215.64369" cy="1327.9059" cx="215.64369" gradientTransform="matrix(-1.1996501,0.12325736,-0.06677579,-0.67242905,563.01264,2195.1018)" gradientUnits="userSpaceOnUse" id="imagebot_33" xlink:href="#imagebot_121"/>
  <radialGradient r="88.77578" fy="1327.9059" fx="215.64369" cy="1327.9059" cx="215.64369" gradientTransform="matrix(-1.1996501,0.12325736,-0.06677579,-0.67242905,563.01264,2195.1018)" gradientUnits="userSpaceOnUse" id="imagebot_31" xlink:href="#imagebot_121"/>
  <radialGradient r="88.77578" fy="1327.9059" fx="215.64369" cy="1327.9059" cx="215.64369" gradientTransform="matrix(-1.1996501,0.12325736,-0.06677579,-0.67242905,563.01264,2195.1018)" gradientUnits="userSpaceOnUse" id="imagebot_29" xlink:href="#imagebot_121"/>
  <radialGradient r="88.77578" fy="1327.9059" fx="215.64369" cy="1327.9059" cx="215.64369" gradientTransform="matrix(-1.1996501,0.12325736,-0.06677579,-0.67242905,563.01264,2195.1018)" gradientUnits="userSpaceOnUse" id="imagebot_27" xlink:href="#imagebot_121"/>
  <radialGradient r="88.77578" fy="1327.9059" fx="215.64369" cy="1327.9059" cx="215.64369" gradientTransform="matrix(-1.1996501,0.12325736,-0.06677579,-0.67242905,563.01264,2195.1018)" gradientUnits="userSpaceOnUse" id="imagebot_25" xlink:href="#imagebot_121"/>
  <radialGradient r="88.77578" fy="1327.9059" fx="215.64369" cy="1327.9059" cx="215.64369" gradientTransform="matrix(-1.1996501,0.12325736,-0.06677579,-0.67242905,563.01264,2195.1018)" gradientUnits="userSpaceOnUse" id="imagebot_23" xlink:href="#imagebot_121"/>
  <radialGradient r="88.77578" fy="1327.9059" fx="215.64369" cy="1327.9059" cx="215.64369" gradientTransform="matrix(-1.1996501,0.12325736,-0.06677579,-0.67242905,563.01264,2195.1018)" gradientUnits="userSpaceOnUse" id="imagebot_21" xlink:href="#imagebot_121"/>
  <radialGradient r="88.77578" fy="1327.9059" fx="215.64369" cy="1327.9059" cx="215.64369" gradientTransform="matrix(-1.1996501,0.12325736,-0.06677579,-0.67242905,563.01264,2195.1018)" gradientUnits="userSpaceOnUse" id="imagebot_19" xlink:href="#imagebot_121"/>
  <radialGradient r="88.77578" fy="1327.9059" fx="215.64369" cy="1327.9059" cx="215.64369" gradientTransform="matrix(-1.1996501,0.12325736,-0.06677579,-0.67242905,563.01264,2195.1018)" gradientUnits="userSpaceOnUse" id="imagebot_17" xlink:href="#imagebot_121"/>
  <radialGradient r="88.77578" fy="1327.9059" fx="215.64369" cy="1327.9059" cx="215.64369" gradientTransform="matrix(-1.1996501,0.12325736,-0.06677579,-0.67242905,563.01264,2195.1018)" gradientUnits="userSpaceOnUse" id="imagebot_15" xlink:href="#imagebot_121"/>
 </defs>
 <title/>
 <metadata id="imagebot_120">image/svg+xmlspeedo meterspeedometerautomotivespeed gaugeracing dialmotorsportsmotor sports2011-02-17netalloy</metadata>
 <g label="Layer 1" id="imagebot_2">
  <path label="Layer 1" fill="url(#imagebot_119)" stroke="#918d89" stroke-width="0" stroke-linecap="round" stroke-linejoin="bevel" stroke-miterlimit="4" stroke-dashoffset="0" d="M 275.244 0 C 123.229 0 0 113.927 0 254.439 C 0 337.824 43.408 411.848 110.466 458.249 L 440.022 458.249 C 507.08 411.848 550.488 337.824 550.488 254.439 C 550.488 113.927 427.259 0 275.244 0 Z" id="imagebot_118"/>
  <path label="Layer 1" opacity="0.50732" fill="url(#imagebot_117)" stroke="#918d89" stroke-width="0" stroke-linecap="round" stroke-linejoin="bevel" stroke-miterlimit="4" stroke-dashoffset="0" d="M 274.393 6.8319 C 130.612 6.8319 14.1089 114.576 14.1089 247.478 C 14.1089 326.346 55.1116 396.332 118.537 440.22 L 430.25 440.22 C 493.675 396.332 534.741 326.346 534.741 247.478 C 534.741 114.576 418.175 6.8319 274.393 6.8319 Z M 274.393 20.2393 C 409.274 20.2393 518.626 121.292 518.626 245.967 C 518.626 319.954 480.119 385.641 420.619 426.813 L 128.231 426.813 C 68.731 385.641 30.2237 319.954 30.2237 245.967 C 30.2237 121.292 139.512 20.2393 274.393 20.2393 Z" id="imagebot_116"/>
  <path label="Layer 1" fill="#666666" stroke="#939393" stroke-width="2.12964px" d="M 110.249 337.392 L 75.829 354.341" id="imagebot_115"/>
  <path label="Layer 1" fill="#666666" stroke="#939393" stroke-width="2.12964px" d="M 89.496 268.159 L 54.3161 268.292" id="imagebot_114"/>
  <path label="Layer 1" fill="#666666" stroke="#939393" stroke-width="2.12964px" d="M 99.4923 198.558 L 69.3749 188.693" id="imagebot_113"/>
  <path label="Layer 1" fill="#666666" stroke="#939393" stroke-width="2.12964px" d="M 128.349 139.844 L 103.795 119.852" id="imagebot_112"/>
  <path label="Layer 1" fill="#2d2d2d" stroke="#6c6c6c" stroke-width="2.12964px" d="M 186.434 100.491 L 168.333 68.2221" id="imagebot_111"/>
  <path label="Layer 1" fill="#2d2d2d" stroke="#6c6c6c" stroke-width="2.12964px" d="M 246.04 77.2179 L 243.888 38.4958" id="imagebot_110"/>
  <path label="Layer 1" fill="#2d2d2d" stroke="#6c6c6c" stroke-width="2.12964px" d="M 310.686 81.6515 L 319.552 43.5582" id="imagebot_109"/>
  <path label="Layer 1" fill="#2d2d2d" stroke="#6c6c6c" stroke-width="2.49066px" d="M 376.925 99.8114 L 395.426 73.4656" id="imagebot_108"/>
  <path label="Layer 1" fill="#2d2d2d" stroke="#7d7777" stroke-width="2.12964px" d="M 421.03 145.299 L 453.299 125.938" id="imagebot_107"/>
  <path label="Layer 1" fill="#2d2d2d" stroke="#7d7777" stroke-width="2.11806px" d="M 460.145 197.298 L 492.064 190.844" id="imagebot_106"/>
  <path label="Layer 1" fill="#2d2d2d" stroke="#7d7777" stroke-width="2.01218px" d="M 468.512 271.963 L 499.24 271.963" id="imagebot_105"/>
  <path label="Layer 1" fill="#2d2d2d" stroke="#7d7777" stroke-width="2.12964px" d="M 439.393 332.828 L 463.057 350.039" id="imagebot_104"/>
  <path label="Layer 1" fill="#666666" stroke="#939393" stroke-width="1.92259px" d="M 90.8114 302.711 L 71.5253 307.013" id="imagebot_103"/>
  <path label="Layer 1" fill="#666666" stroke="#939393" stroke-width="1.70752px" d="M 86.6277 229.947 L 67.2667 229.947" id="imagebot_102"/>
  <path label="Layer 1" fill="#666666" stroke="#939393" stroke-width="1.9963px" d="M 108.165 165.725 L 92.9718 156.358" id="imagebot_101"/>
  <path label="Layer 1" fill="#2d2d2d" stroke="#666666" stroke-width="1.63746px" d="M 152.367 110.885 L 141.904 98.0723" id="imagebot_100"/>
  <path label="Layer 1" fill="#2d2d2d" stroke="#6c6c6c" stroke-width="1.70758px" d="M 208.354 83.4705 L 201.454 67.9465" id="imagebot_99"/>
  <path label="Layer 1" fill="#2d2d2d" stroke="#6c6c6c" stroke-width="2.12964px" d="M 280.086 70.3146 L 282.463 53.1341" id="imagebot_98"/>
  <path label="Layer 1" fill="#2d2d2d" stroke="#6c6c6c" stroke-width="1.70758px" d="M 345.846 81.3186 L 354.47 65.7947" id="imagebot_97"/>
  <path label="Layer 1" fill="#2d2d2d" stroke="#7d7777" stroke-width="1.67384px" d="M 405.005 115.278 L 420.129 102.045" id="imagebot_96"/>
  <path label="Layer 1" fill="#2d2d2d" stroke="#7d7777" stroke-width="2.70477px" d="M 450.305 169.306 L 464.706 161.013" id="imagebot_95"/>
  <path label="Layer 1" fill="#2d2d2d" stroke="#7d7777" stroke-width="1.91607px" d="M 471.33 233.87 L 492.226 233.87" id="imagebot_94"/>
  <path label="Layer 1" fill="#2d2d2d" stroke="#7d7777" stroke-width="1.72245px" d="M 457.422 306.939 L 476.169 315.821" id="imagebot_93"/>
  <path label="Layer 1" opacity="0.22439" fill="#cccccc" fill-opacity="0" stroke="#000000" stroke-width="2.04387" stroke-linecap="round" stroke-linejoin="bevel" stroke-miterlimit="4" stroke-dasharray="2.04386968, 4.0877394" stroke-dashoffset="0" id="imagebot_92" d="M 277.396 64.2759 C 165.171 64.2759 74.1975 148.384 74.1975 252.116 C 74.1975 313.674 106.242 368.321 155.749 402.578 L 399.043 402.578 C 448.549 368.321 480.593 313.674 480.593 252.116 C 480.593 148.384 389.621 64.2759 277.396 64.2759 L 277.396 64.2759 Z"/>
  <g label="Layer 1" fill="url(#imagebot_13)" transform="translate(-47.6215 -7.7693) matrix(2.12108 0 0 2.08528 -136.116 -2559.17)" id="imagebot_12">
   <g font-size="17.56664px" font-style="normal" font-weight="bold" text-anchor="start" fill="url(#imagebot_87)" font-family="Lucida Sans Unicode" id="imagebot_86" transform="scale(1.0147344,0.98547958)">
    <path fill="url(#imagebot_91)" id="imagebot_90" d="M143.44299,1410.70996L143.44299,1399.51001L141.47501,1399.51001L141.47501,1398.14001L145.48599,1397.81995L145.48599,1410.70996L143.44299,1410.70996z"/>
    <path fill="url(#imagebot_89)" id="imagebot_88" d="M155.72472,1411.02551C154.34517,1411.02551 153.24271,1410.40723 152.4173,1409.17041C151.5919,1407.93359 151.1792,1406.31665 151.1792,1404.31958C151.1792,1402.32422 151.59225,1400.70776 152.41838,1399.47009C153.24449,1398.23242 154.3466,1397.61365 155.72472,1397.61365C157.10603,1397.61365 158.20888,1398.23169 159.0332,1399.4679C159.85753,1400.70422 160.26968,1402.32141 160.2697,1404.31958C160.26968,1406.31421 159.85788,1407.93054 159.03429,1409.16846C158.21066,1410.40649 157.10747,1411.02551 155.72472,1411.02551zM155.72472,1409.43823C157.33121,1409.43823 158.13445,1407.73206 158.13445,1404.31958C158.13445,1400.90747 157.33121,1399.20154 155.72472,1399.20154C154.1236,1399.20154 153.32303,1400.90747 153.32303,1404.31958C153.32303,1407.73206 154.1236,1409.43823 155.72472,1409.43823z"/>
   </g>
   <g font-size="17.56664px" font-style="normal" font-weight="bold" text-anchor="start" fill="url(#imagebot_81)" font-family="Lucida Sans Unicode" id="imagebot_80" transform="scale(1.0147344,0.98547958)">
    <path fill="url(#imagebot_85)" id="imagebot_84" d="M129.88499,1384.33997L129.88499,1382.68994C130.384,1381.52002 131.381,1380.26001 132.87399,1378.91003L133.82401,1378.06006C135.005,1376.98999 135.595,1375.93994 135.595,1374.90002C135.595,1374.25 135.40401,1373.73999 135.021,1373.38C134.63699,1373.01001 134.10699,1372.82996 133.429,1372.82996C132.60699,1372.82996 131.53,1373.16003 130.196,1373.82996L130.196,1372.08997C131.397,1371.53003 132.55901,1371.23999 133.681,1371.23999C134.896,1371.23999 135.875,1371.56995 136.617,1372.23999C137.35899,1372.90002 137.73,1373.77002 137.73,1374.84998C137.73,1375.63 137.54601,1376.31995 137.177,1376.91003C136.80701,1377.51001 136.129,1378.22998 135.14,1379.06995L134.50101,1379.62C133.20599,1380.71997 132.46001,1381.68994 132.26401,1382.55005L137.672,1382.55005L137.672,1384.33997L129.88499,1384.33997z"/>
    <path fill="url(#imagebot_83)" id="imagebot_82" d="M145.2444,1384.65527C143.86485,1384.65527 142.76239,1384.03687 141.937,1382.80005C141.11159,1381.56335 140.69888,1379.94641 140.69888,1377.94922C140.69888,1375.95398 141.11194,1374.33752 141.93806,1373.09973C142.76418,1371.86218 143.86629,1371.24341 145.2444,1371.24341C146.62573,1371.24341 147.72855,1371.86145 148.55289,1373.09766C149.37721,1374.33386 149.78938,1375.95105 149.78938,1377.94922C149.78938,1379.94385 149.37756,1381.5603 148.55396,1382.79822C147.73035,1384.03625 146.62715,1384.65527 145.2444,1384.65527zM145.2444,1383.06787C146.85088,1383.06787 147.65413,1381.36169 147.65413,1377.94922C147.65413,1374.53723 146.85088,1372.8313 145.2444,1372.8313C143.64326,1372.8313 142.84271,1374.53723 142.84271,1377.94922C142.84271,1381.36169 143.64326,1383.06787 145.2444,1383.06787z"/>
   </g>
   <g font-size="17.56664px" font-style="normal" font-weight="bold" text-anchor="start" fill="url(#imagebot_75)" font-family="Lucida Sans Unicode" id="imagebot_74" transform="scale(1.0147344,0.98547958)">
    <path fill="url(#imagebot_79)" id="imagebot_78" d="M133.677,1357.29004L133.677,1355.43005C135.009,1355.90002 136.00301,1356.14001 136.658,1356.14001C137.408,1356.14001 138.013,1355.93005 138.472,1355.5C138.931,1355.07996 139.16,1354.52002 139.16,1353.81995C139.16,1352.18994 137.998,1351.37 135.674,1351.37L134.82899,1351.37L134.82899,1349.91003L135.787,1349.90002C137.834,1349.90002 138.858,1349.15002 138.858,1347.64001C138.858,1346.47998 138.158,1345.90002 136.759,1345.90002C135.974,1345.90002 135.00301,1346.14001 133.84599,1346.59998L133.84599,1344.87C134.93201,1344.5 135.94,1344.31995 136.868,1344.31995C138.151,1344.31995 139.14301,1344.57996 139.84599,1345.09998C140.549,1345.63 140.89999,1346.38 140.89999,1347.37C140.89999,1348.91003 140.034,1349.94995 138.302,1350.46997C140.30901,1350.87 141.312,1351.97998 141.312,1353.80005C141.312,1355.02002 140.90601,1355.97998 140.095,1356.68005C139.283,1357.38 138.177,1357.72998 136.776,1357.72998C135.98599,1357.72998 134.953,1357.57996 133.677,1357.29004L133.677,1357.29004z"/>
    <path fill="url(#imagebot_77)" id="imagebot_76" d="M148.71722,1357.72729C147.33768,1357.72729 146.2352,1357.10889 145.40981,1355.87219C144.5844,1354.63538 144.17171,1353.01843 144.17171,1351.02124C144.17171,1349.026 144.58476,1347.40955 145.41087,1346.17188C146.23698,1344.9342 147.3391,1344.31543 148.71722,1344.31543C150.09854,1344.31543 151.20137,1344.93347 152.02571,1346.16968C152.85004,1347.40601 153.26219,1349.02319 153.26221,1351.02124C153.26219,1353.01599 152.85039,1354.63232 152.02678,1355.87024C151.20316,1357.10828 150.09998,1357.72729 148.71722,1357.72729zM148.71722,1356.13989C150.3237,1356.13989 151.12694,1354.43384 151.12695,1351.02124C151.12694,1347.60925 150.3237,1345.90332 148.71722,1345.90332C147.11609,1345.90332 146.31552,1347.60925 146.31554,1351.02124C146.31552,1354.43384 147.11609,1356.13989 148.71722,1356.13989z"/>
   </g>
   <g font-size="17.56664px" font-style="normal" font-weight="bold" text-anchor="start" fill="url(#imagebot_69)" font-family="Lucida Sans Unicode" id="imagebot_68" transform="scale(1.0147344,0.98547958)">
    <path fill="url(#imagebot_73)" id="imagebot_72" d="M148.062,1335.34998L148.062,1331.81995L142.461,1331.81995L142.461,1330.34998L148.14999,1322.56006L149.995,1322.56006L149.995,1330.13L151.66,1330.13L151.66,1331.81995L149.995,1331.81995L149.995,1335.34998L148.062,1335.34998zM144.46201,1330.13L148.17101,1330.13L148.17101,1324.93994z"/>
    <path fill="url(#imagebot_71)" id="imagebot_70" d="M158.36719,1335.65942C156.98764,1335.65942 155.88516,1335.04114 155.05977,1333.80432C154.23438,1332.5675 153.82167,1330.95056 153.82167,1328.95349C153.82167,1326.95825 154.23473,1325.34167 155.06085,1324.104C155.88696,1322.86633 156.98907,1322.24756 158.36719,1322.24756C159.7485,1322.24756 160.85133,1322.8656 161.67567,1324.10181C162.5,1325.33813 162.91216,1326.95532 162.91217,1328.95349C162.91216,1330.94812 162.50037,1332.56445 161.67674,1333.80237C160.85313,1335.04041 159.74994,1335.65942 158.36719,1335.65942zM158.36719,1334.07214C159.97366,1334.07214 160.77692,1332.36597 160.77692,1328.95349C160.77692,1325.54138 159.97366,1323.83545 158.36719,1323.83545C156.76607,1323.83545 155.9655,1325.54138 155.9655,1328.95349C155.9655,1332.36597 156.76607,1334.07214 158.36719,1334.07214z"/>
   </g>
   <g font-size="17.56664px" font-style="normal" font-weight="bold" text-anchor="start" fill="url(#imagebot_63)" font-family="Lucida Sans Unicode" id="imagebot_62" transform="scale(1.0147344,0.98547958)">
    <path fill="url(#imagebot_67)" id="imagebot_66" d="M162.483,1315.55005L162.483,1313.77002C163.45599,1314.09998 164.304,1314.26001 165.026,1314.26001C165.789,1314.26001 166.38699,1314.04004 166.82001,1313.58997C167.25301,1313.15002 167.47,1312.52002 167.47,1311.71997C167.47,1310.85999 167.159,1310.20996 166.53799,1309.76001C165.91701,1309.31006 165.004,1309.08997 163.798,1309.08997C163.521,1309.08997 163.15199,1309.10999 162.69299,1309.15002L162.69299,1302.75L169.369,1302.75L169.369,1304.54004L164.52499,1304.54004L164.52499,1307.46997C166.043,1307.46997 167.27,1307.85999 168.207,1308.63C169.145,1309.39001 169.61301,1310.44995 169.61301,1311.80005C169.61301,1313.06006 169.186,1314.05005 168.332,1314.77002C167.478,1315.48999 166.308,1315.84998 164.82401,1315.84998C164.166,1315.84998 163.38499,1315.75 162.483,1315.55005L162.483,1315.55005z"/>
    <path fill="url(#imagebot_65)" id="imagebot_64" d="M177.17792,1315.84924C175.79837,1315.84924 174.69591,1315.23083 173.8705,1313.99402C173.0451,1312.75732 172.6324,1311.14038 172.6324,1309.14319C172.6324,1307.14795 173.04546,1305.53149 173.87157,1304.2937C174.69769,1303.05615 175.7998,1302.43726 177.17792,1302.43726C178.55923,1302.43726 179.66206,1303.05542 180.4864,1304.29163C181.31071,1305.52783 181.72289,1307.14502 181.7229,1309.14319C181.72289,1311.13782 181.31108,1312.75415 180.48747,1313.99219C179.66385,1315.23022 178.56067,1315.84924 177.17792,1315.84924zM177.17792,1314.26184C178.78439,1314.26184 179.58765,1312.55566 179.58765,1309.14319C179.58765,1305.7312 178.78439,1304.02515 177.17792,1304.02515C175.5768,1304.02515 174.77621,1305.7312 174.77623,1309.14319C174.77621,1312.55566 175.5768,1314.26184 177.17792,1314.26184z"/>
   </g>
   <g font-size="17.56664px" font-style="normal" font-weight="bold" text-anchor="start" fill="url(#imagebot_57)" font-family="Lucida Sans Unicode" id="imagebot_56" transform="scale(1.0147344,0.98547958)">
    <path fill="url(#imagebot_61)" id="imagebot_60" d="M189.65234,1295.57532C190.25133,1294.54919 191.18359,1294.03625 192.44913,1294.03625C193.59277,1294.03625 194.52826,1294.41467 195.25557,1295.17139C195.98286,1295.9281 196.3465,1296.89087 196.34651,1298.05957C196.3465,1299.39551 195.94113,1300.49951 195.13039,1301.37146C194.31963,1302.24365 193.28578,1302.67957 192.02882,1302.67957C190.59032,1302.67957 189.47034,1302.10608 188.66888,1300.95898C187.86742,1299.81189 187.46671,1298.24268 187.46671,1296.25134C187.46671,1293.56799 188.162,1291.5918 189.55263,1290.32275C190.31995,1289.61365 191.37801,1289.25916 192.72684,1289.25916C193.49271,1289.25916 194.48627,1289.43188 195.70749,1289.77747L195.70749,1291.51978C194.3837,1291.07129 193.35655,1290.84705 192.62604,1290.84705C190.64357,1290.84705 189.65234,1292.4231 189.65234,1295.57532zM194.30402,1298.38757C194.304,1297.50708 194.10591,1296.81787 193.70975,1296.31995C193.31357,1295.82214 192.77846,1295.57324 192.10442,1295.57324C191.45003,1295.57324 190.88901,1295.7915 190.42136,1296.22827C189.9537,1296.66504 189.71989,1297.19128 189.71989,1297.80713C189.71989,1298.81812 189.94379,1299.61841 190.39162,1300.20789C190.83942,1300.79749 191.42715,1301.09216 192.15482,1301.09216C192.8092,1301.09216 193.33099,1300.85352 193.7202,1300.37598C194.10941,1299.89856 194.304,1299.23572 194.30402,1298.38757z"/>
    <path fill="url(#imagebot_59)" id="imagebot_58" d="M203.10394,1302.67957C201.7244,1302.67957 200.62192,1302.06116 199.79652,1300.82434C198.97112,1299.58765 198.55843,1297.9707 198.55843,1295.97351C198.55843,1293.97827 198.97147,1292.36182 199.79759,1291.12402C200.6237,1289.88647 201.72581,1289.2677 203.10394,1289.2677C204.48526,1289.2677 205.58809,1289.88574 206.41241,1291.12195C207.23674,1292.35815 207.64891,1293.97534 207.64893,1295.97351C207.64891,1297.96814 207.23711,1299.58459 206.4135,1300.82251C205.58987,1302.06055 204.48669,1302.67957 203.10394,1302.67957zM203.10394,1301.09216C204.71042,1301.09216 205.51366,1299.38599 205.51367,1295.97351C205.51366,1292.56152 204.71042,1290.85559 203.10394,1290.85559C201.50281,1290.85559 200.70224,1292.56152 200.70226,1295.97351C200.70224,1299.38599 201.50281,1301.09216 203.10394,1301.09216z"/>
   </g>
   <g font-size="17.56664px" font-style="normal" font-weight="bold" text-anchor="start" fill="url(#imagebot_51)" font-family="Lucida Sans Unicode" id="imagebot_50" transform="scale(1.0147344,0.98547958)">
    <path fill="url(#imagebot_55)" id="imagebot_54" d="M222.40401,1303.57996C222.567,1302.46997 222.802,1301.56006 223.10699,1300.83997C223.41299,1300.12 223.95,1299.14001 224.718,1297.90002L228.089,1292.68994L221.681,1292.68994L221.681,1290.79004L230.047,1290.79004L230.047,1292.56995C226.853,1297.28003 225.05901,1300.94995 224.666,1303.57996L222.40401,1303.57996z"/>
    <path fill="url(#imagebot_53)" id="imagebot_52" d="M236.60269,1303.89392C235.22314,1303.89392 234.12068,1303.27563 233.29527,1302.03882C232.46988,1300.802 232.05717,1299.18518 232.05717,1297.18799C232.05717,1295.19263 232.47023,1293.57617 233.29636,1292.3385C234.12247,1291.10083 235.22458,1290.48206 236.60269,1290.48206C237.98402,1290.48206 239.08684,1291.1001 239.91118,1292.3363C240.7355,1293.57263 241.14767,1295.18982 241.14767,1297.18799C241.14767,1299.18262 240.73586,1300.79895 239.91226,1302.03687C239.08862,1303.2749 237.98544,1303.89392 236.60269,1303.89392zM236.60269,1302.30664C238.20917,1302.30664 239.01242,1300.60046 239.01244,1297.18799C239.01242,1293.77588 238.20917,1292.06995 236.60269,1292.06995C235.00156,1292.06995 234.201,1293.77588 234.201,1297.18799C234.201,1300.60046 235.00156,1302.30664 236.60269,1302.30664z"/>
   </g>
   <g font-size="17.56664px" font-style="normal" font-weight="bold" text-anchor="start" fill="url(#imagebot_45)" font-family="Lucida Sans Unicode" id="imagebot_44" transform="scale(1.0147344,0.98547958)">
    <path fill="url(#imagebot_49)" id="imagebot_48" d="M247.73199,1308.67004C247.078,1308.28003 246.61,1307.85999 246.32899,1307.43005C246.048,1307 245.907,1306.47998 245.907,1305.87C245.907,1304.88 246.271,1304.06995 246.99899,1303.44995C247.72701,1302.82996 248.67101,1302.52002 249.83,1302.52002C250.901,1302.52002 251.77499,1302.78003 252.451,1303.31006C253.12801,1303.83997 253.466,1304.53003 253.466,1305.38C253.466,1306.64001 252.69299,1307.73999 251.145,1308.66003C253.02299,1309.52002 253.96201,1310.71997 253.96201,1312.23999C253.96201,1313.31995 253.55099,1314.20996 252.729,1314.90002C251.907,1315.58997 250.854,1315.93994 249.569,1315.93994C248.286,1315.93994 247.24699,1315.60999 246.452,1314.95996C245.657,1314.31006 245.259,1313.45996 245.259,1312.40002C245.259,1310.83997 246.084,1309.59998 247.73199,1308.67004zM250.021,1307.97998C251.063,1307.28003 251.584,1306.48999 251.584,1305.60999C251.584,1305.16003 251.408,1304.80005 251.05701,1304.53003C250.70599,1304.25 250.241,1304.10999 249.661,1304.10999C249.097,1304.10999 248.644,1304.25 248.30299,1304.52002C247.961,1304.79004 247.78999,1305.13 247.78999,1305.56006C247.78999,1305.97998 247.951,1306.37 248.27299,1306.71997C248.595,1307.06006 249.17799,1307.47998 250.021,1307.97998zM248.834,1309.52002C248.255,1310 247.853,1310.42004 247.629,1310.78003C247.405,1311.14001 247.293,1311.58997 247.293,1312.13C247.293,1312.80005 247.505,1313.33997 247.92799,1313.73999C248.35201,1314.15002 248.91299,1314.34998 249.61099,1314.34998C250.286,1314.34998 250.83299,1314.18005 251.25101,1313.83997C251.66901,1313.48999 251.87801,1313.05005 251.87801,1312.5C251.87801,1312.05005 251.746,1311.68005 251.483,1311.37C251.22,1311.06006 250.69299,1310.67004 249.901,1310.19995L248.834,1309.52002z"/>
    <path fill="url(#imagebot_47)" id="imagebot_46" d="M260.56003,1315.9386C259.18048,1315.9386 258.078,1315.32019 257.25262,1314.0835C256.42722,1312.84668 256.0145,1311.22986 256.0145,1309.23267C256.0145,1307.2373 256.42755,1305.62085 257.25369,1304.38318C258.0798,1303.14551 259.18192,1302.52673 260.56003,1302.52673C261.94135,1302.52673 263.04419,1303.14478 263.8685,1304.38098C264.69284,1305.61731 265.10501,1307.2345 265.10501,1309.23267C265.10501,1311.22729 264.69318,1312.84363 263.8696,1314.08154C263.04596,1315.31958 261.94278,1315.9386 260.56003,1315.9386zM260.56003,1314.35132C262.1665,1314.35132 262.96976,1312.64514 262.96976,1309.23267C262.96976,1305.82056 262.1665,1304.11462 260.56003,1304.11462C258.95889,1304.11462 258.15833,1305.82056 258.15833,1309.23267C258.15833,1312.64514 258.95889,1314.35132 260.56003,1314.35132z"/>
   </g>
   <g font-size="17.56664px" font-style="normal" font-weight="bold" text-anchor="start" fill="url(#imagebot_39)" font-family="Lucida Sans Unicode" id="imagebot_38" transform="scale(1.0147344,0.98547958)">
    <path fill="url(#imagebot_43)" id="imagebot_42" d="M263.76978,1335.10034L263.76978,1333.39075C264.96811,1333.75537 265.92807,1333.93762 266.64966,1333.93762C267.60962,1333.93762 268.36621,1333.51917 268.91946,1332.68237C269.47272,1331.84558 269.74933,1330.71875 269.74933,1329.302C269.09744,1330.33911 268.2045,1330.85779 267.0705,1330.85779C265.96365,1330.85779 265.02887,1330.45459 264.2662,1329.64807C263.50351,1328.84167 263.12219,1327.86169 263.12219,1326.7085C263.12219,1325.3949 263.52756,1324.30078 264.33829,1323.42566C265.14905,1322.55054 266.17181,1322.11304 267.40662,1322.11304C268.82367,1322.11304 269.93689,1322.67639 270.74619,1323.8031C271.55551,1324.92969 271.96017,1326.45032 271.96017,1328.36499C271.96017,1329.58179 271.76862,1330.72937 271.3855,1331.8075C271.00235,1332.8855 270.48093,1333.7312 269.82117,1334.34448C268.97559,1335.13147 267.86514,1335.5249 266.4899,1335.5249C265.81516,1335.5249 264.90842,1335.38342 263.76978,1335.10034zM265.15665,1326.42212C265.15665,1327.33496 265.35687,1328.04614 265.75735,1328.55579C266.15778,1329.06543 266.69363,1329.32019 267.36481,1329.32019C268.01633,1329.32019 268.57245,1329.099 269.03311,1328.65649C269.4938,1328.21411 269.72415,1327.67969 269.72415,1327.0531C269.72415,1326.03137 269.49863,1325.2157 269.04761,1324.60632C268.59656,1323.99707 268.01596,1323.69238 267.30585,1323.69238C266.64035,1323.69238 266.11581,1323.93091 265.73215,1324.40808C265.34848,1324.88513 265.15665,1325.55652 265.15665,1326.42212z"/>
    <path fill="url(#imagebot_41)" id="imagebot_40" d="M278.59967,1335.5249C277.22012,1335.5249 276.11765,1334.90649 275.29227,1333.6698C274.46686,1332.43298 274.05414,1330.81604 274.05414,1328.81897C274.05414,1326.82361 274.46722,1325.20715 275.29333,1323.96948C276.11945,1322.73181 277.22156,1322.11304 278.59967,1322.11304C279.98099,1322.11304 281.08383,1322.73108 281.90817,1323.96729C282.73248,1325.20361 283.14465,1326.8208 283.14465,1328.81897C283.14465,1330.8136 282.73285,1332.42993 281.90924,1333.66785C281.0856,1334.90588 279.98242,1335.5249 278.59967,1335.5249zM278.59967,1333.93762C280.20615,1333.93762 281.0094,1332.23145 281.0094,1328.81897C281.0094,1325.40686 280.20615,1323.70093 278.59967,1323.70093C276.99854,1323.70093 276.19797,1325.40686 276.19797,1328.81897C276.19797,1332.23145 276.99854,1333.93762 278.59967,1333.93762z"/>
   </g>
   <g font-size="17.56664px" font-style="normal" font-weight="bold" text-anchor="start" fill="url(#imagebot_31)" font-family="Lucida Sans Unicode" id="imagebot_30" transform="scale(1.0147344,0.98547958)">
    <path fill="url(#imagebot_37)" id="imagebot_36" d="M273.004,1358.65002L273.004,1347.44995L271.03601,1347.44995L271.03601,1346.07996L275.047,1345.75L275.047,1358.65002L273.004,1358.65002z"/>
    <path fill="url(#imagebot_35)" id="imagebot_34" d="M285.28555,1358.95825C283.90601,1358.95825 282.80353,1358.33984 281.97812,1357.10303C281.15274,1355.86633 280.74002,1354.24939 280.74002,1352.2522C280.74002,1350.25696 281.15308,1348.6405 281.97919,1347.40271C282.80533,1346.16516 283.90744,1345.54639 285.28555,1345.54626C286.66687,1345.54639 287.76971,1346.16443 288.59402,1347.40063C289.41833,1348.63684 289.83051,1350.25403 289.83054,1352.2522C289.83051,1354.24683 289.4187,1355.86316 288.59512,1357.1012C287.77148,1358.33923 286.6683,1358.95825 285.28555,1358.95825zM285.28555,1357.37085C286.89203,1357.37085 287.69528,1355.66467 287.69528,1352.2522C287.69528,1348.84021 286.89203,1347.13428 285.28555,1347.13416C283.68442,1347.13428 282.88385,1348.84021 282.88385,1352.2522C282.88385,1355.66467 283.68442,1357.37085 285.28555,1357.37085z"/>
    <path fill="url(#imagebot_33)" id="imagebot_32" d="M296.43625,1358.95825C295.0567,1358.95825 293.95422,1358.33984 293.12885,1357.10303C292.30344,1355.86633 291.89072,1354.24939 291.89072,1352.2522C291.89072,1350.25696 292.30377,1348.6405 293.12991,1347.40271C293.95602,1346.16516 295.05814,1345.54639 296.43625,1345.54626C297.81757,1345.54639 298.92041,1346.16443 299.74472,1347.40063C300.56906,1348.63684 300.98123,1350.25403 300.98123,1352.2522C300.98123,1354.24683 300.5694,1355.86316 299.74582,1357.1012C298.92218,1358.33923 297.819,1358.95825 296.43625,1358.95825zM296.43625,1357.37085C298.04272,1357.37085 298.84598,1355.66467 298.84598,1352.2522C298.84598,1348.84021 298.04272,1347.13428 296.43625,1347.13416C294.83511,1347.13428 294.03455,1348.84021 294.03455,1352.2522C294.03455,1355.66467 294.83511,1357.37085 296.43625,1357.37085z"/>
   </g>
   <g font-size="17.56664px" font-style="normal" font-weight="bold" text-anchor="start" fill="url(#imagebot_23)" font-family="Lucida Sans Unicode" id="imagebot_22" transform="scale(1.0147344,0.98547958)">
    <path fill="url(#imagebot_29)" id="imagebot_28" d="M276.88101,1383.94995L276.88101,1372.73999L274.91299,1372.73999L274.91299,1371.38L278.92401,1371.05005L278.92401,1383.94995L276.88101,1383.94995z"/>
    <path fill="url(#imagebot_27)" id="imagebot_26" d="M288.03201,1383.94995L288.03201,1372.73999L286.064,1372.73999L286.064,1371.38L290.07401,1371.05005L290.07401,1383.94995L288.03201,1383.94995z"/>
    <path fill="url(#imagebot_25)" id="imagebot_24" d="M300.31329,1384.25806C298.93375,1384.25806 297.83127,1383.63965 297.00589,1382.40283C296.18048,1381.16614 295.76776,1379.54919 295.76776,1377.552C295.76776,1375.55676 296.18082,1373.94031 297.00696,1372.70251C297.83307,1371.46497 298.93518,1370.84619 300.31329,1370.84607C301.69461,1370.84619 302.79745,1371.46423 303.62177,1372.70044C304.44611,1373.93665 304.85825,1375.55383 304.85828,1377.552C304.85825,1379.54663 304.44647,1381.16296 303.62286,1382.401C302.79922,1383.63904 301.69604,1384.25806 300.31329,1384.25806zM300.31329,1382.67065C301.91977,1382.67065 302.72302,1380.96448 302.72302,1377.552C302.72302,1374.14001 301.91977,1372.43408 300.31329,1372.43396C298.71216,1372.43408 297.91159,1374.14001 297.91159,1377.552C297.91159,1380.96448 298.71216,1382.67065 300.31329,1382.67065z"/>
   </g>
   <g font-size="17.56664px" font-style="normal" font-weight="bold" text-anchor="start" fill="url(#imagebot_15)" font-family="Lucida Sans Unicode" id="imagebot_14" transform="scale(1.0147344,0.98547958)">
    <path fill="url(#imagebot_21)" id="imagebot_20" d="M261.63199,1407.64001L261.63199,1396.43994L259.664,1396.43994L259.664,1395.06995L263.67499,1394.73999L263.67499,1407.64001L261.63199,1407.64001z"/>
    <path fill="url(#imagebot_19)" id="imagebot_18" d="M269.70499,1407.64001L269.70499,1405.97998C270.20401,1404.81006 271.20099,1403.56006 272.69299,1402.19995L273.64401,1401.35999C274.82501,1400.29004 275.41501,1399.22998 275.41501,1398.18994C275.41501,1397.55005 275.224,1397.04004 274.841,1396.68005C274.457,1396.31006 273.927,1396.13 273.24899,1396.13C272.427,1396.13 271.349,1396.45996 270.01599,1397.13L270.01599,1395.39001C271.21701,1394.81995 272.379,1394.54004 273.50101,1394.54004C274.716,1394.54004 275.69501,1394.87 276.43701,1395.53003C277.17899,1396.19995 277.54999,1397.06995 277.54999,1398.15002C277.54999,1398.93005 277.36499,1399.60999 276.996,1400.20996C276.62701,1400.81006 275.948,1401.53003 274.95999,1402.37L274.32001,1402.92004C273.026,1404.01001 272.28,1404.98999 272.08401,1405.83997L277.491,1405.83997L277.491,1407.64001L269.70499,1407.64001z"/>
    <path fill="url(#imagebot_17)" id="imagebot_16" d="M285.0643,1407.95166C283.68475,1407.95166 282.58228,1407.33325 281.75687,1406.09644C280.93149,1404.85974 280.51877,1403.2428 280.51877,1401.24561C280.51877,1399.25037 280.93185,1397.63391 281.75797,1396.39612C282.58408,1395.15857 283.68619,1394.53979 285.0643,1394.53967C286.44562,1394.53979 287.54846,1395.15784 288.3728,1396.39404C289.19711,1397.63025 289.60928,1399.24744 289.60928,1401.24561C289.60928,1403.24023 289.19745,1404.85657 288.37387,1406.0946C287.55023,1407.33264 286.44705,1407.95166 285.0643,1407.95166zM285.0643,1406.36426C286.67078,1406.36426 287.47403,1404.65808 287.47403,1401.24561C287.47403,1397.83362 286.67078,1396.12769 285.0643,1396.12756C283.46317,1396.12769 282.6626,1397.83362 282.6626,1401.24561C282.6626,1404.65808 283.46317,1406.36426 285.0643,1406.36426z"/>
   </g>
  </g>
  <path transform="rotate(84.306 180.272 257.732) translate(-6.25 -157.5)" label="Layer 1" fill="url(#imagebot_11)" stroke="#000000" stroke-width="0" stroke-miterlimit="4" d="M 269.968 342.706 L 261.363 334.1 C 40.6508 557.381 54.3447 537.546 269.968 342.706 Z" id="imagebot_10"/>
  <path label="Layer 1" fill="url(#imagebot_5)" stroke="#000000" stroke-width="0" stroke-linecap="round" stroke-linejoin="bevel" stroke-miterlimit="4" stroke-dashoffset="0" id="imagebot_4" d="M 291.086 333.739 C 291.086 344.252 282.335 352.774 271.54 352.774 C 260.746 352.774 251.994 344.252 251.994 333.739 C 251.994 323.226 260.746 314.704 271.54 314.704 C 282.335 314.704 291.086 323.226 291.086 333.739 Z"/>
  <path label="Layer 1" fill="#eeeeee" stroke="#000000" stroke-width="0" stroke-linecap="round" stroke-linejoin="bevel" stroke-miterlimit="4" stroke-dashoffset="0" id="imagebot_3" d="M 154.249 397.079 L 401.441 397.079 L 401.441 409.249 L 154.249 409.249 L 154.249 397.079 Z"/>
  <title>Layer 1</title>
  <text font-weight="bold" xml:space="preserve" text-anchor="middle" font-family="Sans-serif" font-size="70" id="imagebot_173" y="242.125" x="276.875" stroke-width="0" stroke="#000000" fill="#000000">Kbps</text>
 </g>
</svg>